<svg xmlns="http://www.w3.org/2000/svg" width="1054" height="1493" viewBox="0 0 1054 1493">
<defs>
<style>text{font-family:Arial,Helvetica,sans-serif}.b{font-weight:800}.m{font-weight:600}.blue{fill:#0b66d9}.green{fill:#14a44d}.red{fill:#e92929}.orange{fill:#f59e0b}.purple{fill:#673ab7}.gray{fill:#334155}.small{font-size:12px}.body{font-size:13px}.title{font-size:42px}.big{font-size:32px}.mid{font-size:18px}.card{fill:#fff;stroke:#e4edf7;stroke-width:1.2}.shadow{filter:url(#ds)}</style>
<filter id="ds" x="-20%" y="-20%" width="140%" height="140%"><feDropShadow dx="0" dy="3" stdDeviation="3" flood-color="#d8e4f3" flood-opacity=".8"/></filter>
<linearGradient id="footer" x1="0" y1="0" x2="1" y2="0"><stop offset="0" stop-color="#045fcd"/><stop offset="1" stop-color="#0b72e4"/></linearGradient>
<symbol id="file" viewBox="0 0 42 56"><path d="M5 0h25l12 12v39a5 5 0 0 1-5 5H5a5 5 0 0 1-5-5V5a5 5 0 0 1 5-5z"/><path d="M30 0v12h12" fill="#fff" opacity=".35"/><path d="M10 24h21M10 34h21M10 44h14" stroke="#fff" stroke-width="4" stroke-linecap="round"/></symbol>
<symbol id="drive" viewBox="0 0 60 52"><path d="M22 0 0 38h17L39 0z" fill="#0f9d58"/><path d="M22 0h17l21 38H43z" fill="#f4b400"/><path d="M8 52h44l8-14H17z" fill="#4285f4"/></symbol>
<symbol id="gmail" viewBox="0 0 48 34"><path d="M0 32V3l24 18L48 3v29h-7V13L24 30 7 13v19z" fill="#ea4335"/><path d="M0 3l24 18L48 3" fill="none" stroke="#ea4335" stroke-width="4"/></symbol>
<symbol id="meet" viewBox="0 0 56 42"><rect x="0" y="9" width="34" height="25" rx="5" fill="#34a853"/><path d="M34 15 56 6v30l-22-9z" fill="#4285f4"/><path d="M10 9h24v25H10z" fill="#fbbc04" opacity=".35"/></symbol>
<symbol id="classroom" viewBox="0 0 64 48"><rect width="64" height="48" rx="5" fill="#fbbc04"/><rect x="6" y="6" width="52" height="36" rx="4" fill="#34a853"/><circle cx="23" cy="19" r="5" fill="#dff6e5"/><circle cx="37" cy="19" r="5" fill="#dff6e5"/><rect x="15" y="26" width="34" height="7" rx="3.5" fill="#dff6e5"/></symbol>
<symbol id="laptop" viewBox="0 0 140 82"><rect x="14" y="0" width="112" height="66" rx="5" fill="#1f2937"/><rect x="22" y="8" width="96" height="50" fill="#a7f3d0"/><path d="M0 66h140l-12 16H12z" fill="#6b7280"/><rect x="48" y="70" width="44" height="4" rx="2" fill="#334155"/></symbol>
</defs>
<rect width="1054" height="1493" fill="#fff"/>
<g id="decor"><g fill="#8bb7ff" opacity=".9"><circle cx="20" cy="170" r="3"/><circle cx="40" cy="170" r="3"/><circle cx="60" cy="170" r="3"/><circle cx="20" cy="190" r="3"/><circle cx="40" cy="190" r="3"/><circle cx="60" cy="190" r="3"/><circle cx="20" cy="210" r="3"/><circle cx="40" cy="210" r="3"/><circle cx="60" cy="210" r="3"/><circle cx="20" cy="230" r="3"/><circle cx="40" cy="230" r="3"/><circle cx="60" cy="230" r="3"/></g><path d="M929 200a130 130 0 0 1 125-91v92a120 120 0 0 0-88 29z" fill="#e92929"/><path d="M899 290a190 190 0 0 1 75-111 160 160 0 0 1 80 20v95a170 170 0 0 0-155-4z" fill="#14a44d"/><path d="M973 305a150 150 0 0 1 81-25v70a170 170 0 0 0-72 12z" fill="#fbbc04"/></g>
<g id="header"><g id="school_logo" transform="translate(24 18) scale(.72)"><circle cx="58" cy="58" r="50" fill="none" stroke="#0b66d9" stroke-width="5"/><path d="M34 45 58 30l24 15v37L58 96 34 82z" fill="none" stroke="#0b66d9" stroke-width="5"/><path d="M58 30v66M34 45l24 15 24-15" stroke="#0b66d9" stroke-width="5" fill="none"/><path d="M38 30c-20 15-28 42-16 66M78 30c20 15 28 42 16 66" stroke="#0b66d9" stroke-width="7" fill="none" stroke-linecap="round"/><text x="58" y="113" text-anchor="middle" class="b blue" font-size="12">2018</text><text x="58" y="130" text-anchor="middle" class="b blue" font-size="11">JUNIOR HIGH SCHOOL</text></g><text x="140" y="58" class="b blue" font-size="14">TRƯỜNG TRUNG HỌC CƠ SỞ</text><text x="140" y="95" class="b blue" font-size="30">NGUYỄN DU</text><text x="710" y="54" font-size="30" class="m"><tspan fill="#4285f4">G</tspan><tspan fill="#db4437">o</tspan><tspan fill="#f4b400">o</tspan><tspan fill="#4285f4">g</tspan><tspan fill="#0f9d58">l</tspan><tspan fill="#db4437">e</tspan><tspan fill="#444" font-weight="400"> for Education</tspan></text></g>
<g id="title"><text x="415" y="165" text-anchor="middle" class="b blue title">LỚP HỌC SỐ:</text><text x="700" y="165" text-anchor="middle" class="b red title">CON HỌC GÌ,</text><text x="527" y="225" text-anchor="middle" class="b title"><tspan fill="#f59e0b">HỌC THẾ NÀO,</tspan><tspan fill="#14a44d"> HỌC BẰNG GÌ?</tspan></text><text x="527" y="268" text-anchor="middle" class="m blue" font-size="16">Với Google Workspace for Education, học sinh được học tập</text><text x="527" y="291" text-anchor="middle" class="m blue" font-size="16">trên một hệ sinh thái hiện đại giúp tăng hiệu quả, kết nối và kỹ năng số.</text><use href="#drive" x="585" y="312" width="35"/><use href="#file" x="635" y="310" width="30" fill="#4285f4"/><use href="#file" x="680" y="310" width="30" fill="#34a853"/><use href="#file" x="725" y="310" width="30" fill="#fbbc04"/><use href="#file" x="770" y="310" width="30" fill="#673ab7"/><use href="#gmail" x="816" y="320" width="38"/><use href="#meet" x="870" y="316" width="40"/></g>
<g id="hero"><rect x="28" y="315" width="998" height="276" rx="22" fill="#f8fbff" stroke="#dce8f5"/><rect x="28" y="315" width="998" height="276" rx="22" fill="#fff"/><rect x="30" y="480" width="994" height="110" fill="#f2c694"/><rect x="48" y="330" width="250" height="150" fill="#f6fbff"/><rect x="795" y="335" width="205" height="145" fill="#fff7e8"/><circle cx="920" cy="382" r="28" fill="#bfe3ff" stroke="#6aa5d8"/><rect x="890" y="420" width="70" height="10" fill="#c8a16a"/>
<g id="people"><g transform="translate(95 420)"><circle cx="35" cy="0" r="30" fill="#f1c29c"/><path d="M5-6c10-48 67-45 65 9-14-20-34-25-65-9z" fill="#111827"/><rect x="-15" y="32" width="100" height="70" rx="18" fill="#fff" stroke="#cbd5e1"/><use href="#laptop" x="-25" y="80" width="140"/></g><g transform="translate(295 425)"><circle cx="35" cy="0" r="29" fill="#f1c29c"/><path d="M8-8c18-38 62-32 62 9-16-12-35-15-62-9z" fill="#111827"/><rect x="-15" y="32" width="100" height="70" rx="18" fill="#fff" stroke="#cbd5e1"/><use href="#laptop" x="-25" y="80" width="140"/></g><g transform="translate(468 372)"><circle cx="44" cy="0" r="32" fill="#f1c29c"/><path d="M12-10c20-48 70-35 70 12-23-16-45-15-70-12z" fill="#5b3927"/><path d="M0 38h88l45 100H-38z" fill="#fff1cf" stroke="#e0c88a"/><path d="M30 80 0 125" stroke="#f1c29c" stroke-width="9" stroke-linecap="round"/><path d="M62 80 95 125" stroke="#f1c29c" stroke-width="9" stroke-linecap="round"/></g><g transform="translate(645 425)"><circle cx="35" cy="0" r="29" fill="#f1c29c"/><path d="M7-8c12-38 65-40 64 12-17-18-37-18-64-12z" fill="#111827"/><rect x="-15" y="32" width="100" height="70" rx="18" fill="#fff" stroke="#cbd5e1"/><use href="#laptop" x="-25" y="80" width="140"/></g><g transform="translate(830 425)"><circle cx="35" cy="0" r="29" fill="#f1c29c"/><path d="M8-8c17-42 65-30 65 12-20-16-39-20-65-12z" fill="#111827"/><rect x="-15" y="32" width="100" height="70" rx="18" fill="#fff" stroke="#cbd5e1"/><use href="#laptop" x="-25" y="80" width="140"/></g></g></g>
<g id="section1"><rect x="28" y="606" width="420" height="34" rx="17" fill="#0b66d9"/><circle cx="50" cy="623" r="16" fill="#fff" stroke="#9ec7fb"/><text x="50" y="630" text-anchor="middle" class="b blue mid">1</text><text x="78" y="629" class="b" font-size="18" fill="#fff">Con học thế nào trong lớp học số?</text></g>
<g id="cards"><g><rect x="28" y="655" width="232" height="190" rx="16" class="card"/><circle cx="51" cy="678" r="15" fill="#14a44d"/><text x="51" y="685" text-anchor="middle" class="b" font-size="18" fill="#fff">1</text><use href="#classroom" x="108" y="668" width="56"/><text x="144" y="740" text-anchor="middle" class="b green body">Nhận bài và hướng dẫn</text><text x="144" y="760" text-anchor="middle" class="b green body">trên Google Classroom</text><text x="144" y="805" text-anchor="middle" class="body gray">Giáo viên giao bài, chia sẻ</text><text x="144" y="825" text-anchor="middle" class="body gray">học liệu và hướng dẫn rõ ràng.</text></g><g><rect x="274" y="655" width="232" height="190" rx="16" class="card"/><circle cx="297" cy="678" r="15" fill="#f59e0b"/><text x="297" y="685" text-anchor="middle" class="b" font-size="18" fill="#fff">2</text><use href="#file" x="333" y="670" width="32" fill="#4285f4"/><use href="#file" x="375" y="670" width="32" fill="#34a853"/><use href="#file" x="417" y="670" width="32" fill="#fbbc04"/><text x="390" y="735" text-anchor="middle" class="b green body">Học tập, soạn bài,</text><text x="390" y="755" text-anchor="middle" class="b green body">trình bày trên</text><text x="390" y="775" text-anchor="middle" class="b green body">Docs, Sheets, Slides</text><text x="390" y="815" text-anchor="middle" class="body gray">Soạn thảo, tính toán, thiết kế</text><text x="390" y="835" text-anchor="middle" class="body gray">slide và làm việc mọi lúc, mọi nơi.</text></g><g><rect x="520" y="655" width="232" height="190" rx="16" class="card"/><circle cx="543" cy="678" r="15" fill="#673ab7"/><text x="543" y="685" text-anchor="middle" class="b" font-size="18" fill="#fff">3</text><use href="#file" x="620" y="670" width="34" fill="#673ab7"/><text x="636" y="735" text-anchor="middle" class="b purple body">Làm bài tập, bài kiểm tra</text><text x="636" y="755" text-anchor="middle" class="b purple body">và khảo sát trên</text><text x="636" y="775" text-anchor="middle" class="b purple body">Google Forms</text><text x="636" y="815" text-anchor="middle" class="body gray">Nộp bài, làm bài kiểm tra</text><text x="636" y="835" text-anchor="middle" class="body gray">và nhận kết quả nhanh chóng.</text></g><g><rect x="766" y="655" width="260" height="190" rx="16" class="card"/><circle cx="789" cy="678" r="15" fill="#e92929"/><text x="789" y="685" text-anchor="middle" class="b" font-size="18" fill="#fff">4</text><use href="#gmail" x="830" y="672" width="42"/><use href="#meet" x="890" y="668" width="44"/><use href="#drive" x="950" y="670" width="38"/><text x="896" y="735" text-anchor="middle" class="b" font-size="13" fill="#111">Trao đổi, họp lớp,</text><text x="896" y="755" text-anchor="middle" class="b" font-size="13" fill="#111">nhận phản hồi qua</text><text x="896" y="775" text-anchor="middle" class="b red body">Gmail, Meet và Drive</text><text x="896" y="815" text-anchor="middle" class="body gray">Liên lạc nhanh, học trực tuyến</text><text x="896" y="835" text-anchor="middle" class="body gray">và lưu trữ tài liệu an toàn.</text></g></g>
<g id="section2"><rect x="28" y="866" width="490" height="34" rx="17" fill="#14a44d"/><circle cx="50" cy="883" r="16" fill="#fff" stroke="#b6e7c3"/><text x="50" y="890" text-anchor="middle" class="b green mid">2</text><text x="78" y="889" class="b" font-size="18" fill="#fff">Những ứng dụng học sinh sẽ dùng thường xuyên</text></g>
<g id="apps"><g class="small"><rect x="28" y="914" width="810" height="120" rx="14" fill="#fff" stroke="#e4edf7"/><use href="#classroom" x="46" y="928" width="45"/><text x="68" y="978" text-anchor="middle" class="b green">Classroom</text><text x="68" y="998" text-anchor="middle">Quản lý lớp học</text><use href="#file" x="150" y="928" width="32" fill="#4285f4"/><text x="166" y="978" text-anchor="middle" class="b blue">Docs</text><text x="166" y="998" text-anchor="middle">Soạn thảo</text><use href="#file" x="252" y="928" width="32" fill="#fbbc04"/><text x="268" y="978" text-anchor="middle" class="b orange">Slides</text><text x="268" y="998" text-anchor="middle">Trình bày</text><use href="#file" x="354" y="928" width="32" fill="#34a853"/><text x="370" y="978" text-anchor="middle" class="b green">Sheets</text><text x="370" y="998" text-anchor="middle">Dữ liệu</text><use href="#file" x="456" y="928" width="32" fill="#673ab7"/><text x="472" y="978" text-anchor="middle" class="b purple">Forms</text><text x="472" y="998" text-anchor="middle">Bài tập</text><use href="#drive" x="552" y="928" width="38"/><text x="570" y="978" text-anchor="middle" class="b green">Drive</text><text x="570" y="998" text-anchor="middle">Lưu trữ</text><use href="#gmail" x="650" y="933" width="38"/><text x="670" y="978" text-anchor="middle" class="b red">Gmail</text><text x="670" y="998" text-anchor="middle">Email</text><use href="#meet" x="750" y="930" width="42"/><text x="770" y="978" text-anchor="middle" class="b green">Meet</text><text x="770" y="998" text-anchor="middle">Họp online</text></g><rect x="850" y="898" width="176" height="136" rx="18" fill="#eef6ff"/><use href="#laptop" x="880" y="914" width="120"/><text x="938" y="1005" text-anchor="middle" class="b blue mid">Chromebook</text><text x="938" y="1024" text-anchor="middle" class="small gray">Thiết bị học tập lý tưởng</text></g>
<g id="benefits"><rect x="28" y="1054" width="492" height="34" rx="17" fill="#0b66d9"/><circle cx="50" cy="1071" r="16" fill="#fff"/><text x="50" y="1078" text-anchor="middle" class="b blue mid">3</text><text x="78" y="1077" class="b" font-size="18" fill="#fff">Lợi ích đối với học sinh</text><rect x="536" y="1054" width="490" height="34" rx="17" fill="#f59e0b"/><circle cx="558" cy="1071" r="16" fill="#fff"/><text x="558" y="1078" text-anchor="middle" class="b orange mid">4</text><text x="586" y="1077" class="b" font-size="18" fill="#fff">Lợi ích đối với phụ huynh và nhà trường</text>
<g font-size="12"><rect x="28" y="1100" width="492" height="210" rx="12" class="card"/><text x="60" y="1128" class="b blue body">📘 Dễ tiếp cận học liệu</text><text x="60" y="1168" class="b blue body">💻 Rèn kỹ năng số</text><text x="60" y="1208" class="b blue body">👥 Hợp tác hiệu quả</text><text x="60" y="1248" class="b blue body">💡 Sáng tạo và thuyết trình tốt hơn</text><text x="60" y="1288" class="b blue body">📈 Tự học tốt hơn</text><rect x="536" y="1100" width="490" height="210" rx="12" class="card"/><text x="570" y="1128" class="b orange body">👥 Dễ phối hợp cùng giáo viên</text><text x="570" y="1168" class="b orange body">📊 Nắm bắt hành trình học tập của con</text><text x="570" y="1208" class="b orange body">◔ Dữ liệu học tập rõ ràng</text><text x="570" y="1248" class="b orange body">🛡 Môi trường học tập an toàn</text><text x="570" y="1288" class="b orange body">⚙ Quản lý tập trung, hiệu quả</text></g></g>
<g id="device"><rect x="28" y="1326" width="245" height="34" rx="17" fill="#0b66d9"/><circle cx="50" cy="1343" r="16" fill="#fff"/><text x="50" y="1350" text-anchor="middle" class="b blue mid">5</text><text x="78" y="1349" class="b" font-size="18" fill="#fff">Con học bằng gì?</text><rect x="28" y="1364" width="998" height="86" rx="18" fill="#f5fbff" stroke="#cfe4fb"/><use href="#laptop" x="70" y="1375" width="140"/><text x="308" y="1405" text-anchor="middle" class="b blue mid">Chromebook</text><text x="308" y="1426" text-anchor="middle" class="small gray">Thiết bị học tập được thiết kế cho giáo dục hiện đại.</text><text x="515" y="1400" text-anchor="middle" class="b blue small">🚀 Khởi động nhanh</text><text x="640" y="1400" text-anchor="middle" class="b green small">☝ Dễ dàng</text><text x="760" y="1400" text-anchor="middle" class="b orange small">🔋 Pin lâu</text><text x="895" y="1400" text-anchor="middle" class="b red small">🛡 Bảo mật tốt</text></g>
<g id="footer"><rect x="0" y="1458" width="1054" height="35" fill="url(#footer)"/><text x="70" y="1481" class="b" font-size="16" fill="#fff">☎ THÔNG TIN LIÊN HỆ</text><text x="380" y="1481" class="m" font-size="16" fill="#fff">◎ Website: c2nguyendu-ntl.edu.vn</text><text x="795" y="1481" class="m" font-size="16" fill="#fff">☎ 024 3201 1356</text></g>
</svg>
